<svg xmlns="http://www.w3.org/2000/svg" viewBox="0 0 800 1400" preserveAspectRatio="xMidYMid slice">
  <defs>
    <linearGradient id="sky-grad" x1="0" y1="0" x2="0" y2="1">
      <stop offset="0%" stop-color="#7BA7BC"/>
      <stop offset="100%" stop-color="#9BBFCE"/>
    </linearGradient>
    <linearGradient id="river-grad" x1="0" y1="0" x2="1" y2="0">
      <stop offset="0%" stop-color="#4A8AB0"/>
      <stop offset="50%" stop-color="#2A6A90"/>
      <stop offset="100%" stop-color="#4A8AB0"/>
    </linearGradient>
    <linearGradient id="sun-grad" x1="0" y1="0" x2="0" y2="1">
      <stop offset="0%" stop-color="#F0D060"/>
      <stop offset="100%" stop-color="#E8B840"/>
    </linearGradient>
    <filter id="soft-glow" x="-20%" y="-20%" width="140%" height="140%">
      <feGaussianBlur stdDeviation="3" result="blur"/>
      <feMerge>
        <feMergeNode in="blur"/>
        <feMergeNode in="SourceGraphic"/>
      </feMerge>
    </filter>
  </defs>

  <!-- Sky -->
  <rect width="800" height="1400" fill="url(#sky-grad)"/>

  <!-- Sun (centered) -->
  <circle cx="400" cy="130" r="70" fill="#F0D060" opacity="0.2" filter="url(#soft-glow)"/>
  <circle cx="400" cy="130" r="55" fill="url(#sun-grad)" opacity="0.9"/>
  <circle cx="400" cy="130" r="65" fill="none" stroke="#D4A830" stroke-width="6" opacity="0.35"/>
  <line x1="400" y1="50" x2="400" y2="30" stroke="#D4A830" stroke-width="3" stroke-linecap="round" opacity="0.4"/>
  <line x1="460" y1="70" x2="475" y2="58" stroke="#D4A830" stroke-width="3" stroke-linecap="round" opacity="0.4"/>
  <line x1="480" y1="130" x2="500" y2="130" stroke="#D4A830" stroke-width="3" stroke-linecap="round" opacity="0.4"/>
  <line x1="460" y1="190" x2="475" y2="202" stroke="#D4A830" stroke-width="3" stroke-linecap="round" opacity="0.4"/>
  <line x1="340" y1="70" x2="325" y2="58" stroke="#D4A830" stroke-width="3" stroke-linecap="round" opacity="0.4"/>
  <line x1="320" y1="130" x2="300" y2="130" stroke="#D4A830" stroke-width="3" stroke-linecap="round" opacity="0.4"/>
  <line x1="340" y1="190" x2="325" y2="202" stroke="#D4A830" stroke-width="3" stroke-linecap="round" opacity="0.4"/>
  <line x1="400" y1="210" x2="400" y2="225" stroke="#D4A830" stroke-width="3" stroke-linecap="round" opacity="0.4"/>

  <!-- Clouds - softer -->
  <g opacity="0.4">
    <ellipse cx="150" cy="100" rx="70" ry="30" fill="#E8E0D8"/>
    <ellipse cx="190" cy="90" rx="50" ry="25" fill="#F0E8E0"/>
    <ellipse cx="120" cy="95" rx="40" ry="20" fill="#E8E0D8"/>
    <ellipse cx="600" cy="80" rx="60" ry="25" fill="#E8E0D8"/>
    <ellipse cx="640" cy="70" rx="45" ry="22" fill="#F0E8E0"/>
    <ellipse cx="570" cy="75" rx="35" ry="18" fill="#E8E0D8"/>
    <ellipse cx="350" cy="250" rx="50" ry="22" fill="#E8E0D8"/>
    <ellipse cx="380" cy="240" rx="40" ry="18" fill="#F0E8E0"/>
  </g>

  <!-- Distant hills - more muted -->
  <path d="M0 650 Q200 580 400 620 Q600 560 800 600 L800 750 L0 750Z" fill="#5A7A5A" opacity="0.45"/>
  <path d="M0 720 Q250 660 400 690 Q600 640 800 680 L800 850 L0 850Z" fill="#3A6A3A" opacity="0.55"/>

  <!-- Background trees - refined tones -->
  <g>
    <rect x="98" y="640" width="8" height="40" fill="#5A3A20" rx="2"/>
    <ellipse cx="102" cy="625" rx="22" ry="28" fill="#3A6A32"/>
    <ellipse cx="98" cy="620" rx="18" ry="22" fill="#4A7A42" opacity="0.7"/>
    <rect x="598" y="630" width="10" height="45" fill="#5A3A20" rx="2"/>
    <ellipse cx="603" cy="610" rx="28" ry="35" fill="#3A6A32"/>
    <ellipse cx="598" cy="605" rx="22" ry="28" fill="#4A7A42" opacity="0.7"/>
    <rect x="348" y="660" width="8" height="38" fill="#5A3A20" rx="2"/>
    <ellipse cx="352" cy="645" rx="20" ry="26" fill="#3A6A32"/>
    <ellipse cx="348" cy="640" rx="16" ry="20" fill="#4A7A42" opacity="0.7"/>
  </g>

  <!-- Green hills foreground - sophisticated -->
  <path d="M0 800 Q100 760 250 780 Q400 740 550 770 Q700 750 800 770 L800 950 L0 950Z" fill="#3A6A32" opacity="0.65"/>
  <path d="M0 880 Q150 840 300 860 Q450 830 600 850 Q700 840 800 855 L800 1050 L0 1050Z" fill="#2A5A22"/>

  <!-- River - deeper, richer -->
  <path d="M-20 900 Q100 880 200 895 Q350 910 500 890 Q650 870 800 900 L820 950 Q650 965 500 945 Q350 930 200 940 Q100 950 -20 935Z" fill="url(#river-grad)" opacity="0.65"/>
  <circle cx="150" cy="910" r="3" fill="#8AB0D0" opacity="0.5"/>
  <circle cx="400" cy="900" r="2.5" fill="#8AB0D0" opacity="0.4"/>
  <circle cx="650" cy="910" r="3" fill="#8AB0D0" opacity="0.5"/>
  <path d="M-20 898 Q100 878 200 893 Q350 908 500 888 Q650 868 800 898" fill="none" stroke="#1A5A80" stroke-width="2.5" stroke-linecap="round" opacity="0.35"/>
  <path d="M-20 935 Q100 950 200 930 Q350 920 500 940 Q650 955 800 935" fill="none" stroke="#1A5A80" stroke-width="2.5" stroke-linecap="round" opacity="0.35"/>

  <!-- Ground - warm earth tone -->
  <path d="M0 950 Q200 935 400 945 Q600 930 800 940 L800 1400 L0 1400Z" fill="#6B5040"/>

  <!-- Grass strokes - refined -->
  <g opacity="0.55">
    <line x1="50" y1="960" x2="45" y2="943" stroke="#3A6A32" stroke-width="3" stroke-linecap="round"/>
    <line x1="55" y1="960" x2="58" y2="945" stroke="#3A6A32" stroke-width="2.5" stroke-linecap="round"/>
    <line x1="200" y1="955" x2="195" y2="938" stroke="#3A6A32" stroke-width="3" stroke-linecap="round"/>
    <line x1="400" y1="950" x2="395" y2="933" stroke="#3A6A32" stroke-width="3" stroke-linecap="round"/>
    <line x1="600" y1="945" x2="595" y2="928" stroke="#3A6A32" stroke-width="2.5" stroke-linecap="round"/>
    <line x1="700" y1="948" x2="705" y2="933" stroke="#3A6A32" stroke-width="2" stroke-linecap="round"/>
  </g>

  <!-- Flowers - muted, cohesive palette -->
  <g opacity="0.6">
    <circle cx="80" cy="955" r="4" fill="#C05060"/>
    <circle cx="78" cy="953" r="3" fill="#D08030" opacity="0.8"/>
    <circle cx="250" cy="948" r="3.5" fill="#D08030"/>
    <circle cx="500" cy="943" r="4" fill="#C05060"/>
    <circle cx="700" cy="945" r="3.5" fill="#7A5090"/>
  </g>

  <!-- === SCHOOL (upper-left) === -->
  <g>
    <line x1="145" y1="718" x2="145" y2="682" stroke="#5A3A20" stroke-width="3" stroke-linecap="round"/>
    <path d="M145 684 L177 692 L145 701Z" fill="#B84035"/>
    <path d="M145 684 L177 692 L145 701Z" fill="none" stroke="#5A3A20" stroke-width="2" stroke-linecap="round" stroke-linejoin="round"/>
    <rect x="65" y="770" width="160" height="100" fill="#D4B860" rx="3"/>
    <rect x="65" y="770" width="160" height="100" fill="none" stroke="#5A3A20" stroke-width="3.5" stroke-linecap="round" stroke-linejoin="round" rx="3"/>
    <path d="M50 775 L145 715 L240 775Z" fill="#B84035"/>
    <path d="M50 775 L145 715 L240 775Z" fill="none" stroke="#5A3A20" stroke-width="3.5" stroke-linecap="round" stroke-linejoin="round"/>
    <circle cx="145" cy="749" r="9" fill="#C09030" stroke="#5A3A20" stroke-width="2.5"/>
    <line x1="145" y1="752" x2="145" y2="760" stroke="#5A3A20" stroke-width="2.5" stroke-linecap="round"/>
    <rect x="130" y="820" width="30" height="50" fill="#7A4020" rx="3"/>
    <rect x="130" y="820" width="30" height="50" fill="none" stroke="#5A3A20" stroke-width="2.5" stroke-linecap="round" rx="3"/>
    <circle cx="153" cy="848" r="3" fill="#C09030"/>
    <rect x="115" y="797" width="60" height="17" fill="#2A5A80" rx="3"/>
    <text x="145" y="810" font-family="Georgia, serif" font-size="11" font-weight="700" fill="#F0E8E0" text-anchor="middle">SCHOOL</text>
    <rect x="80" y="792" width="24" height="24" fill="#7BA7BC" rx="2"/>
    <rect x="80" y="792" width="24" height="24" fill="none" stroke="#5A3A20" stroke-width="2.5" rx="2"/>
    <line x1="92" y1="792" x2="92" y2="816" stroke="#5A3A20" stroke-width="2"/>
    <line x1="80" y1="804" x2="104" y2="804" stroke="#5A3A20" stroke-width="2"/>
    <rect x="184" y="792" width="24" height="24" fill="#7BA7BC" rx="2"/>
    <rect x="184" y="792" width="24" height="24" fill="none" stroke="#5A3A20" stroke-width="2.5" rx="2"/>
    <line x1="196" y1="792" x2="196" y2="816" stroke="#5A3A20" stroke-width="2"/>
    <line x1="184" y1="804" x2="208" y2="804" stroke="#5A3A20" stroke-width="2"/>
    <rect x="81" y="793" width="22" height="22" fill="#D4A830" opacity="0.25" rx="1"/>
    <rect x="185" y="793" width="22" height="22" fill="#D4A830" opacity="0.25" rx="1"/>
    <path d="M145 870 Q140 892 148 915 Q144 935 150 955" fill="none" stroke="#9A8070" stroke-width="8" stroke-linecap="round" opacity="0.35"/>
  </g>

  <!-- === LIBRARY (lower-right) === -->
  <g>
    <rect x="480" y="1020" width="180" height="110" fill="#C4A882" rx="3"/>
    <rect x="480" y="1020" width="180" height="110" fill="none" stroke="#4A3020" stroke-width="3.5" stroke-linecap="round" stroke-linejoin="round" rx="3"/>
    <path d="M470 1025 L570 970 L670 1025Z" fill="#7A5A48"/>
    <path d="M470 1025 L570 970 L670 1025Z" fill="none" stroke="#4A3020" stroke-width="3.5" stroke-linecap="round" stroke-linejoin="round"/>
    <rect x="495" y="1025" width="12" height="100" fill="#B09878" rx="2"/>
    <rect x="495" y="1025" width="12" height="100" fill="none" stroke="#4A3020" stroke-width="2.5" rx="2"/>
    <rect x="535" y="1025" width="12" height="100" fill="#B09878" rx="2"/>
    <rect x="535" y="1025" width="12" height="100" fill="none" stroke="#4A3020" stroke-width="2.5" rx="2"/>
    <rect x="615" y="1025" width="12" height="100" fill="#B09878" rx="2"/>
    <rect x="615" y="1025" width="12" height="100" fill="none" stroke="#4A3020" stroke-width="2.5" rx="2"/>
    <rect x="655" y="1025" width="12" height="100" fill="#B09878" rx="2"/>
    <rect x="655" y="1025" width="12" height="100" fill="none" stroke="#4A3020" stroke-width="2.5" rx="2"/>
    <path d="M560 1130 L560 1080 Q560 1065 575 1065 Q590 1065 590 1080 L590 1130Z" fill="#6A4A30"/>
    <path d="M560 1130 L560 1080 Q560 1065 575 1065 Q590 1065 590 1080 L590 1130Z" fill="none" stroke="#4A3020" stroke-width="2.5" stroke-linecap="round"/>
    <rect x="505" y="1050" width="25" height="25" fill="#7BA7BC" rx="2"/>
    <rect x="505" y="1050" width="25" height="25" fill="none" stroke="#4A3020" stroke-width="2.5" rx="2"/>
    <line x1="517" y1="1050" x2="517" y2="1075" stroke="#4A3020" stroke-width="2"/>
    <line x1="505" y1="1062" x2="530" y2="1062" stroke="#4A3020" stroke-width="2"/>
    <rect x="630" y="1050" width="25" height="25" fill="#7BA7BC" rx="2"/>
    <rect x="630" y="1050" width="25" height="25" fill="none" stroke="#4A3020" stroke-width="2.5" rx="2"/>
    <line x1="642" y1="1050" x2="642" y2="1075" stroke="#4A3020" stroke-width="2"/>
    <line x1="630" y1="1062" x2="655" y2="1062" stroke="#4A3020" stroke-width="2"/>
    <rect x="506" y="1051" width="23" height="23" fill="#D4A830" opacity="0.25" rx="1"/>
    <rect x="631" y="1051" width="23" height="23" fill="#D4A830" opacity="0.25" rx="1"/>
    <rect x="550" y="1005" width="8" height="15" fill="#C05040" rx="1" transform="rotate(-5 554 1012)"/>
    <rect x="560" y="1003" width="7" height="16" fill="#2A5A80" rx="1" transform="rotate(3 563 1011)"/>
    <rect x="570" y="1004" width="8" height="15" fill="#D4A830" rx="1" transform="rotate(-2 574 1011)"/>
    <rect x="580" y="1003" width="7" height="16" fill="#C05040" rx="1" transform="rotate(4 583 1011)"/>
    <rect x="590" y="1005" width="8" height="14" fill="#2A5A80" rx="1" transform="rotate(-3 594 1012)"/>
    <rect x="545" y="978" width="50" height="18" fill="#5A3A20" rx="3"/>
    <text x="570" y="992" font-family="Georgia, serif" font-size="11" font-weight="700" fill="#F0E8E0" text-anchor="middle">LIBRARY</text>
    <path d="M575 1130 Q572 1150 578 1170 Q574 1190 578 1210" fill="none" stroke="#8A7060" stroke-width="8" stroke-linecap="round" opacity="0.35"/>
  </g>

  <!-- Fence near school -->
  <g opacity="0.4">
    <line x1="30" y1="948" x2="30" y2="923" stroke="#7A5A48" stroke-width="3" stroke-linecap="round"/>
    <line x1="50" y1="946" x2="50" y2="921" stroke="#7A5A48" stroke-width="3" stroke-linecap="round"/>
    <line x1="28" y1="931" x2="52" y2="928" stroke="#7A5A48" stroke-width="2.5" stroke-linecap="round"/>
    <line x1="28" y1="941" x2="52" y2="938" stroke="#7A5A48" stroke-width="2.5" stroke-linecap="round"/>
  </g>

  <!-- Bush near library -->
  <ellipse cx="710" cy="1120" rx="20" ry="14" fill="#3A6A32"/>
  <ellipse cx="725" cy="1117" rx="16" ry="12" fill="#4A7A42" opacity="0.6"/>
  <ellipse cx="700" cy="1118" rx="14" ry="10" fill="#2A5A22" opacity="0.5"/>

  <!-- Birds -->
  <g opacity="0.35">
    <path d="M200 350 Q205 343 210 350 Q215 343 220 350" fill="none" stroke="#4A5A60" stroke-width="2" stroke-linecap="round"/>
    <path d="M500 300 Q504 294 508 300 Q512 294 516 300" fill="none" stroke="#4A5A60" stroke-width="2" stroke-linecap="round"/>
    <path d="M650 400 Q653 395 656 400 Q659 395 662 400" fill="none" stroke="#4A5A60" stroke-width="1.5" stroke-linecap="round"/>
  </g>

  <!-- Wooden bridge - warm earth -->
  <path d="M235 940 Q400 880 565 940" fill="none" stroke="#9A5520" stroke-width="11" stroke-linecap="round"/>
  <path d="M240 920 Q400 862 560 920" fill="none" stroke="#7A4018" stroke-width="4" stroke-linecap="round"/>
  <line x1="270" y1="928" x2="275" y2="910" stroke="#7A4018" stroke-width="3" stroke-linecap="round"/>
  <line x1="330" y1="912" x2="333" y2="894" stroke="#7A4018" stroke-width="3" stroke-linecap="round"/>
  <line x1="400" y1="905" x2="400" y2="887" stroke="#7A4018" stroke-width="3" stroke-linecap="round"/>
  <line x1="470" y1="912" x2="467" y2="894" stroke="#7A4018" stroke-width="3" stroke-linecap="round"/>
  <line x1="530" y1="928" x2="525" y2="910" stroke="#7A4018" stroke-width="3" stroke-linecap="round"/>

  <!-- Path school → bridge → library -->
  <path d="M150 970 Q250 960 300 945 Q350 930 370 905" fill="none" stroke="#8A7060" stroke-width="10" stroke-linecap="round" opacity="0.3"/>
  <path d="M430 905 Q480 940 530 955 Q580 970 600 980" fill="none" stroke="#8A7060" stroke-width="10" stroke-linecap="round" opacity="0.3"/>

  <!-- RealLearn signpost - refined brand color -->
  <rect x="395" y="1000" width="9" height="62" fill="#7A5A48" rx="2"/>
  <rect x="395" y="1000" width="9" height="62" fill="none" stroke="#5A3A20" stroke-width="2" rx="2"/>
  <path d="M340 992 L357 976 L450 976 L467 992 L450 1008 L357 1008Z" fill="#5A4DA0"/>
  <path d="M340 992 L357 976 L450 976 L467 992 L450 1008 L357 1008Z" fill="none" stroke="#5A3A20" stroke-width="2.5" stroke-linecap="round" stroke-linejoin="round"/>
  <text x="403" y="998" font-family="Georgia, serif" font-size="17" font-weight="700" fill="#F0E8FF" text-anchor="middle">RealLearn</text>
</svg>
