<svg xmlns="http://www.w3.org/2000/svg" viewBox="0 0 1200 800" preserveAspectRatio="xMidYMid slice">
  <defs>
    <linearGradient id="sky-grad" x1="0" y1="0" x2="0" y2="1">
      <stop offset="0%" stop-color="#7BA7BC"/>
      <stop offset="100%" stop-color="#9BBFCE"/>
    </linearGradient>
    <linearGradient id="river-grad" x1="0" y1="0" x2="1" y2="0">
      <stop offset="0%" stop-color="#4A8AB0"/>
      <stop offset="50%" stop-color="#2A6A90"/>
      <stop offset="100%" stop-color="#4A8AB0"/>
    </linearGradient>
    <linearGradient id="sun-grad" x1="0" y1="0" x2="0" y2="1">
      <stop offset="0%" stop-color="#F0D060"/>
      <stop offset="100%" stop-color="#E8B840"/>
    </linearGradient>
    <filter id="soft-glow" x="-20%" y="-20%" width="140%" height="140%">
      <feGaussianBlur stdDeviation="3" result="blur"/>
      <feMerge>
        <feMergeNode in="blur"/>
        <feMergeNode in="SourceGraphic"/>
      </feMerge>
    </filter>
  </defs>

  <!-- Sky -->
  <rect width="1200" height="800" fill="url(#sky-grad)"/>

  <!-- Sun with warm glow -->
  <circle cx="950" cy="120" r="70" fill="#F0D060" opacity="0.2" filter="url(#soft-glow)"/>
  <circle cx="950" cy="120" r="55" fill="url(#sun-grad)" opacity="0.9"/>
  <circle cx="950" cy="120" r="65" fill="none" stroke="#D4A830" stroke-width="6" opacity="0.35"/>
  <line x1="950" y1="40" x2="950" y2="20" stroke="#D4A830" stroke-width="3" stroke-linecap="round" opacity="0.4"/>
  <line x1="1010" y1="60" x2="1025" y2="48" stroke="#D4A830" stroke-width="3" stroke-linecap="round" opacity="0.4"/>
  <line x1="1030" y1="120" x2="1050" y2="120" stroke="#D4A830" stroke-width="3" stroke-linecap="round" opacity="0.4"/>
  <line x1="1010" y1="180" x2="1025" y2="192" stroke="#D4A830" stroke-width="3" stroke-linecap="round" opacity="0.4"/>
  <line x1="890" y1="60" x2="875" y2="48" stroke="#D4A830" stroke-width="3" stroke-linecap="round" opacity="0.4"/>
  <line x1="870" y1="120" x2="850" y2="120" stroke="#D4A830" stroke-width="3" stroke-linecap="round" opacity="0.4"/>
  <line x1="890" y1="180" x2="875" y2="192" stroke="#D4A830" stroke-width="3" stroke-linecap="round" opacity="0.4"/>
  <line x1="950" y1="200" x2="950" y2="215" stroke="#D4A830" stroke-width="3" stroke-linecap="round" opacity="0.4"/>

  <!-- Clouds - softer -->
  <g opacity="0.4">
    <ellipse cx="200" cy="100" rx="70" ry="30" fill="#E8E0D8"/>
    <ellipse cx="240" cy="90" rx="50" ry="25" fill="#F0E8E0"/>
    <ellipse cx="170" cy="95" rx="40" ry="20" fill="#E8E0D8"/>
    <ellipse cx="600" cy="70" rx="60" ry="25" fill="#E8E0D8"/>
    <ellipse cx="640" cy="60" rx="45" ry="22" fill="#F0E8E0"/>
    <ellipse cx="570" cy="65" rx="35" ry="18" fill="#E8E0D8"/>
    <ellipse cx="1050" cy="180" rx="50" ry="22" fill="#E8E0D8"/>
    <ellipse cx="1080" cy="170" rx="40" ry="18" fill="#F0E8E0"/>
  </g>

  <!-- Distant hills - more muted -->
  <path d="M0 420 Q150 340 300 380 Q450 320 600 370 Q750 310 900 360 Q1050 300 1200 350 L1200 500 L0 500Z" fill="#5A7A5A" opacity="0.45"/>
  <path d="M0 460 Q200 390 400 420 Q550 370 700 410 Q850 360 1000 400 Q1100 380 1200 410 L1200 550 L0 550Z" fill="#3A6A3A" opacity="0.55"/>

  <!-- Background trees - refined tones -->
  <g>
    <rect x="148" y="360" width="8" height="40" fill="#5A3A20" rx="2"/>
    <ellipse cx="152" cy="345" rx="22" ry="28" fill="#3A6A32"/>
    <ellipse cx="148" cy="340" rx="18" ry="22" fill="#4A7A42" opacity="0.7"/>
    <rect x="448" y="340" width="10" height="45" fill="#5A3A20" rx="2"/>
    <ellipse cx="453" cy="320" rx="28" ry="35" fill="#3A6A32"/>
    <ellipse cx="448" cy="315" rx="22" ry="28" fill="#4A7A42" opacity="0.7"/>
    <rect x="848" y="350" width="8" height="38" fill="#5A3A20" rx="2"/>
    <ellipse cx="852" cy="335" rx="20" ry="26" fill="#3A6A32"/>
    <ellipse cx="848" cy="330" rx="16" ry="20" fill="#4A7A42" opacity="0.7"/>
    <rect x="1098" y="345" width="9" height="42" fill="#5A3A20" rx="2"/>
    <ellipse cx="1102" cy="328" rx="24" ry="30" fill="#3A6A32"/>
    <ellipse cx="1098" cy="322" rx="19" ry="24" fill="#4A7A42" opacity="0.7"/>
  </g>

  <!-- Green hills foreground - sophisticated -->
  <path d="M0 500 Q100 450 250 480 Q400 440 550 470 Q700 430 850 460 Q1000 440 1200 470 L1200 600 L0 600Z" fill="#3A6A32" opacity="0.65"/>
  <path d="M0 540 Q150 500 300 520 Q450 490 600 510 Q750 480 900 505 Q1050 490 1200 510 L1200 650 L0 650Z" fill="#2A5A22"/>

  <!-- River - deeper, richer -->
  <path d="M-20 530 Q100 510 200 525 Q350 540 500 520 Q650 500 800 530 Q950 550 1100 525 Q1180 515 1220 520 L1220 570 Q1100 585 950 565 Q800 545 650 560 Q500 575 350 555 Q200 540 100 555 Q0 565 -20 550Z" fill="url(#river-grad)" opacity="0.65"/>
  <circle cx="150" cy="535" r="3" fill="#8AB0D0" opacity="0.5"/>
  <circle cx="400" cy="528" r="2.5" fill="#8AB0D0" opacity="0.4"/>
  <circle cx="650" cy="535" r="3" fill="#8AB0D0" opacity="0.5"/>
  <circle cx="900" cy="540" r="2" fill="#8AB0D0" opacity="0.4"/>
  <circle cx="1050" cy="530" r="2.5" fill="#8AB0D0" opacity="0.35"/>
  <path d="M-20 528 Q100 508 200 523 Q350 538 500 518 Q650 498 800 528 Q950 548 1100 523 Q1180 513 1220 518" fill="none" stroke="#1A5A80" stroke-width="2.5" stroke-linecap="round" opacity="0.35"/>
  <path d="M-20 552 Q100 567 200 547 Q350 537 500 557 Q650 572 800 552 Q950 537 1100 547 Q1180 557 1220 550" fill="none" stroke="#1A5A80" stroke-width="2.5" stroke-linecap="round" opacity="0.35"/>

  <!-- Ground - warm earth tone -->
  <path d="M0 570 Q200 555 400 565 Q600 550 800 560 Q1000 548 1200 555 L1200 800 L0 800Z" fill="#6B5040"/>

  <!-- Grass strokes - refined -->
  <g opacity="0.55">
    <line x1="50" y1="575" x2="45" y2="558" stroke="#3A6A32" stroke-width="3" stroke-linecap="round"/>
    <line x1="55" y1="575" x2="58" y2="560" stroke="#3A6A32" stroke-width="2.5" stroke-linecap="round"/>
    <line x1="180" y1="568" x2="175" y2="550" stroke="#3A6A32" stroke-width="3" stroke-linecap="round"/>
    <line x1="185" y1="568" x2="190" y2="552" stroke="#3A6A32" stroke-width="2" stroke-linecap="round"/>
    <line x1="320" y1="570" x2="315" y2="553" stroke="#3A6A32" stroke-width="3" stroke-linecap="round"/>
    <line x1="520" y1="565" x2="515" y2="548" stroke="#3A6A32" stroke-width="2.5" stroke-linecap="round"/>
    <line x1="525" y1="565" x2="530" y2="550" stroke="#3A6A32" stroke-width="2" stroke-linecap="round"/>
    <line x1="700" y1="568" x2="695" y2="550" stroke="#3A6A32" stroke-width="3" stroke-linecap="round"/>
    <line x1="870" y1="562" x2="865" y2="545" stroke="#3A6A32" stroke-width="2.5" stroke-linecap="round"/>
    <line x1="875" y1="562" x2="880" y2="547" stroke="#3A6A32" stroke-width="2" stroke-linecap="round"/>
    <line x1="1020" y1="558" x2="1015" y2="540" stroke="#3A6A32" stroke-width="3" stroke-linecap="round"/>
    <line x1="1150" y1="560" x2="1145" y2="543" stroke="#3A6A32" stroke-width="2.5" stroke-linecap="round"/>
    <line x1="1155" y1="560" x2="1160" y2="545" stroke="#3A6A32" stroke-width="2" stroke-linecap="round"/>
  </g>

  <!-- Flowers - muted, cohesive palette -->
  <g opacity="0.6">
    <circle cx="90" cy="572" r="4" fill="#C05060"/>
    <circle cx="88" cy="570" r="3" fill="#D08030" opacity="0.8"/>
    <circle cx="250" cy="565" r="3.5" fill="#D08030"/>
    <circle cx="248" cy="563" r="2.5" fill="#C05060" opacity="0.8"/>
    <circle cx="580" cy="560" r="4" fill="#C05060"/>
    <circle cx="578" cy="558" r="3" fill="#7A5090" opacity="0.8"/>
    <circle cx="760" cy="558" r="3.5" fill="#7A5090"/>
    <circle cx="758" cy="556" r="2.5" fill="#C05060" opacity="0.8"/>
    <circle cx="980" cy="555" r="4" fill="#D08030"/>
    <circle cx="978" cy="553" r="3" fill="#C05060" opacity="0.8"/>
    <circle cx="1130" cy="557" r="3.5" fill="#7A5090"/>
  </g>

  <!-- SCHOOL - sophisticated warm palette -->
  <g>
    <line x1="145" y1="418" x2="145" y2="382" stroke="#5A3A20" stroke-width="3" stroke-linecap="round"/>
    <path d="M145 384 L177 392 L145 401Z" fill="#B84035"/>
    <path d="M145 384 L177 392 L145 401Z" fill="none" stroke="#5A3A20" stroke-width="2" stroke-linecap="round" stroke-linejoin="round"/>
    <rect x="65" y="470" width="160" height="100" fill="#D4B860" rx="3"/>
    <rect x="65" y="470" width="160" height="100" fill="none" stroke="#5A3A20" stroke-width="3.5" stroke-linecap="round" stroke-linejoin="round" rx="3"/>
    <path d="M50 475 L145 415 L240 475Z" fill="#B84035"/>
    <path d="M50 475 L145 415 L240 475Z" fill="none" stroke="#5A3A20" stroke-width="3.5" stroke-linecap="round" stroke-linejoin="round"/>
    <circle cx="145" cy="449" r="9" fill="#C09030" stroke="#5A3A20" stroke-width="2.5"/>
    <line x1="145" y1="452" x2="145" y2="460" stroke="#5A3A20" stroke-width="2.5" stroke-linecap="round"/>
    <rect x="130" y="520" width="30" height="50" fill="#7A4020" rx="3"/>
    <rect x="130" y="520" width="30" height="50" fill="none" stroke="#5A3A20" stroke-width="2.5" stroke-linecap="round" rx="3"/>
    <circle cx="153" cy="548" r="3" fill="#C09030"/>
    <rect x="115" y="497" width="60" height="17" fill="#2A5A80" rx="3"/>
    <text x="145" y="510" font-family="Georgia, serif" font-size="11" font-weight="700" fill="#F0E8E0" text-anchor="middle">SCHOOL</text>
    <rect x="80" y="492" width="24" height="24" fill="#7BA7BC" rx="2"/>
    <rect x="80" y="492" width="24" height="24" fill="none" stroke="#5A3A20" stroke-width="2.5" rx="2"/>
    <line x1="92" y1="492" x2="92" y2="516" stroke="#5A3A20" stroke-width="2"/>
    <line x1="80" y1="504" x2="104" y2="504" stroke="#5A3A20" stroke-width="2"/>
    <rect x="184" y="492" width="24" height="24" fill="#7BA7BC" rx="2"/>
    <rect x="184" y="492" width="24" height="24" fill="none" stroke="#5A3A20" stroke-width="2.5" rx="2"/>
    <line x1="196" y1="492" x2="196" y2="516" stroke="#5A3A20" stroke-width="2"/>
    <line x1="184" y1="504" x2="208" y2="504" stroke="#5A3A20" stroke-width="2"/>
    <rect x="80" y="532" width="24" height="24" fill="#7BA7BC" rx="2"/>
    <rect x="80" y="532" width="24" height="24" fill="none" stroke="#5A3A20" stroke-width="2.5" rx="2"/>
    <line x1="92" y1="532" x2="92" y2="556" stroke="#5A3A20" stroke-width="2"/>
    <line x1="80" y1="544" x2="104" y2="544" stroke="#5A3A20" stroke-width="2"/>
    <rect x="184" y="532" width="24" height="24" fill="#7BA7BC" rx="2"/>
    <rect x="184" y="532" width="24" height="24" fill="none" stroke="#5A3A20" stroke-width="2.5" rx="2"/>
    <line x1="196" y1="532" x2="196" y2="556" stroke="#5A3A20" stroke-width="2"/>
    <line x1="184" y1="544" x2="208" y2="544" stroke="#5A3A20" stroke-width="2"/>
    <rect x="81" y="493" width="22" height="22" fill="#D4A830" opacity="0.25" rx="1"/>
    <rect x="185" y="493" width="22" height="22" fill="#D4A830" opacity="0.25" rx="1"/>
    <rect x="81" y="533" width="22" height="22" fill="#D4A830" opacity="0.25" rx="1"/>
    <rect x="185" y="533" width="22" height="22" fill="#D4A830" opacity="0.25" rx="1"/>
    <path d="M145 570 Q140 592 148 615 Q144 635 150 655" fill="none" stroke="#9A8070" stroke-width="8" stroke-linecap="round" opacity="0.35"/>
  </g>

  <!-- LIBRARY - refined wood tones -->
  <g>
    <rect x="880" y="460" width="180" height="110" fill="#C4A882" rx="3"/>
    <rect x="880" y="460" width="180" height="110" fill="none" stroke="#4A3020" stroke-width="3.5" stroke-linecap="round" stroke-linejoin="round" rx="3"/>
    <path d="M870 465 L970 410 L1070 465Z" fill="#7A5A48"/>
    <path d="M870 465 L970 410 L1070 465Z" fill="none" stroke="#4A3020" stroke-width="3.5" stroke-linecap="round" stroke-linejoin="round"/>
    <rect x="895" y="465" width="12" height="100" fill="#B09878" rx="2"/>
    <rect x="895" y="465" width="12" height="100" fill="none" stroke="#4A3020" stroke-width="2.5" rx="2"/>
    <rect x="935" y="465" width="12" height="100" fill="#B09878" rx="2"/>
    <rect x="935" y="465" width="12" height="100" fill="none" stroke="#4A3020" stroke-width="2.5" rx="2"/>
    <rect x="1015" y="465" width="12" height="100" fill="#B09878" rx="2"/>
    <rect x="1015" y="465" width="12" height="100" fill="none" stroke="#4A3020" stroke-width="2.5" rx="2"/>
    <rect x="1055" y="465" width="12" height="100" fill="#B09878" rx="2"/>
    <rect x="1055" y="465" width="12" height="100" fill="none" stroke="#4A3020" stroke-width="2.5" rx="2"/>
    <path d="M960 570 L960 520 Q960 505 975 505 Q990 505 990 520 L990 570Z" fill="#6A4A30"/>
    <path d="M960 570 L960 520 Q960 505 975 505 Q990 505 990 520 L990 570Z" fill="none" stroke="#4A3020" stroke-width="2.5" stroke-linecap="round"/>
    <rect x="905" y="490" width="25" height="25" fill="#7BA7BC" rx="2"/>
    <rect x="905" y="490" width="25" height="25" fill="none" stroke="#4A3020" stroke-width="2.5" rx="2"/>
    <line x1="917" y1="490" x2="917" y2="515" stroke="#4A3020" stroke-width="2"/>
    <line x1="905" y1="502" x2="930" y2="502" stroke="#4A3020" stroke-width="2"/>
    <rect x="1030" y="490" width="25" height="25" fill="#7BA7BC" rx="2"/>
    <rect x="1030" y="490" width="25" height="25" fill="none" stroke="#4A3020" stroke-width="2.5" rx="2"/>
    <line x1="1042" y1="490" x2="1042" y2="515" stroke="#4A3020" stroke-width="2"/>
    <line x1="1030" y1="502" x2="1055" y2="502" stroke="#4A3020" stroke-width="2"/>
    <rect x="906" y="491" width="23" height="23" fill="#D4A830" opacity="0.25" rx="1"/>
    <rect x="1031" y="491" width="23" height="23" fill="#D4A830" opacity="0.25" rx="1"/>
    <rect x="950" y="445" width="8" height="15" fill="#C05040" rx="1" transform="rotate(-5 954 452)"/>
    <rect x="960" y="443" width="7" height="16" fill="#2A5A80" rx="1" transform="rotate(3 963 451)"/>
    <rect x="970" y="444" width="8" height="15" fill="#D4A830" rx="1" transform="rotate(-2 974 451)"/>
    <rect x="980" y="443" width="7" height="16" fill="#C05040" rx="1" transform="rotate(4 983 451)"/>
    <rect x="990" y="445" width="8" height="14" fill="#2A5A80" rx="1" transform="rotate(-3 994 452)"/>
    <rect x="945" y="418" width="50" height="18" fill="#5A3A20" rx="3"/>
    <text x="970" y="432" font-family="Georgia, serif" font-size="11" font-weight="700" fill="#F0E8E0" text-anchor="middle">LIBRARY</text>
    <path d="M975 570 Q972 590 978 610 Q974 630 978 650" fill="none" stroke="#8A7060" stroke-width="8" stroke-linecap="round" opacity="0.35"/>
  </g>

  <!-- Fence near school -->
  <g opacity="0.4">
    <line x1="30" y1="565" x2="30" y2="540" stroke="#7A5A48" stroke-width="3" stroke-linecap="round"/>
    <line x1="50" y1="563" x2="50" y2="538" stroke="#7A5A48" stroke-width="3" stroke-linecap="round"/>
    <line x1="28" y1="548" x2="52" y2="545" stroke="#7A5A48" stroke-width="2.5" stroke-linecap="round"/>
    <line x1="28" y1="558" x2="52" y2="555" stroke="#7A5A48" stroke-width="2.5" stroke-linecap="round"/>
  </g>

  <!-- Bush near library -->
  <ellipse cx="1110" cy="558" rx="20" ry="14" fill="#3A6A32"/>
  <ellipse cx="1125" cy="555" rx="16" ry="12" fill="#4A7A42" opacity="0.6"/>
  <ellipse cx="1100" cy="556" rx="14" ry="10" fill="#2A5A22" opacity="0.5"/>

  <!-- Birds -->
  <g opacity="0.35">
    <path d="M300 200 Q305 193 310 200 Q315 193 320 200" fill="none" stroke="#4A5A60" stroke-width="2" stroke-linecap="round"/>
    <path d="M500 150 Q504 144 508 150 Q512 144 516 150" fill="none" stroke="#4A5A60" stroke-width="2" stroke-linecap="round"/>
    <path d="M420 180 Q423 175 426 180 Q429 175 432 180" fill="none" stroke="#4A5A60" stroke-width="1.5" stroke-linecap="round"/>
    <path d="M750 130 Q753 125 756 130 Q759 125 762 130" fill="none" stroke="#4A5A60" stroke-width="1.5" stroke-linecap="round"/>
  </g>

  <!-- Wooden bridge - warm earth -->
  <path d="M535 556 Q610 508 685 556" fill="none" stroke="#9A5520" stroke-width="11" stroke-linecap="round"/>
  <path d="M540 538 Q610 492 680 538" fill="none" stroke="#7A4018" stroke-width="4" stroke-linecap="round"/>
  <line x1="552" y1="546" x2="555" y2="530" stroke="#7A4018" stroke-width="3" stroke-linecap="round"/>
  <line x1="580" y1="534" x2="582" y2="517" stroke="#7A4018" stroke-width="3" stroke-linecap="round"/>
  <line x1="610" y1="529" x2="610" y2="512" stroke="#7A4018" stroke-width="3" stroke-linecap="round"/>
  <line x1="640" y1="534" x2="638" y2="517" stroke="#7A4018" stroke-width="3" stroke-linecap="round"/>
  <line x1="668" y1="546" x2="665" y2="530" stroke="#7A4018" stroke-width="3" stroke-linecap="round"/>

  <!-- Path school → bridge → library -->
  <path d="M150 650 Q300 632 450 606 Q510 592 537 558" fill="none" stroke="#8A7060" stroke-width="10" stroke-linecap="round" opacity="0.3"/>
  <path d="M683 558 Q740 600 830 618 Q900 632 972 642" fill="none" stroke="#8A7060" stroke-width="10" stroke-linecap="round" opacity="0.3"/>

  <!-- RealLearn signpost - refined brand color -->
  <rect x="748" y="600" width="9" height="62" fill="#7A5A48" rx="2"/>
  <rect x="748" y="600" width="9" height="62" fill="none" stroke="#5A3A20" stroke-width="2" rx="2"/>
  <path d="M687 592 L704 576 L800 576 L817 592 L800 608 L704 608Z" fill="#5A4DA0"/>
  <path d="M687 592 L704 576 L800 576 L817 592 L800 608 L704 608Z" fill="none" stroke="#5A3A20" stroke-width="2.5" stroke-linecap="round" stroke-linejoin="round"/>
  <text x="752" y="598" font-family="Georgia, serif" font-size="17" font-weight="700" fill="#F0E8FF" text-anchor="middle">RealLearn</text>
</svg>
